HIERARCHY
ROOT Hips
{
	OFFSET 0.000000 0.000000 0.000000
	CHANNELS 6 Xposition Yposition Zposition Zrotation Yrotation Xrotation 
	JOINT LHipJoint
	{
		OFFSET 0.000000 0.000000 0.000000
		CHANNELS 3 Zrotation Yrotation Xrotation
		JOINT LeftUpLeg
		{
			OFFSET 1.363060 -1.794630 0.839290
			CHANNELS 3 Zrotation Yrotation Xrotation
			JOINT LeftLeg
			{
				OFFSET 2.448110 -6.726130 0.000000
				CHANNELS 3 Zrotation Yrotation Xrotation
				JOINT LeftFoot
				{
					OFFSET 2.562200 -7.039590 0.000000
					CHANNELS 3 Zrotation Yrotation Xrotation
					JOINT LeftToeBase
					{
						OFFSET 0.157640 -0.433110 2.322550
						CHANNELS 3 Zrotation Yrotation Xrotation
						End Site
						{
							OFFSET 0.000000 0.000000 0.000000
						}
					}
				}
			}
		}
	}
	JOINT RHipJoint
	{
		OFFSET 0.000000 0.000000 0.000000
		CHANNELS 3 Zrotation Yrotation Xrotation
		JOINT RightUpLeg
		{
			OFFSET -1.305520 -1.794630 0.839290
			CHANNELS 3 Zrotation Yrotation Xrotation
			JOINT RightLeg
			{
				OFFSET -2.542530 -6.985550 0.000000
				CHANNELS 3 Zrotation Yrotation Xrotation
				JOINT RightFoot
				{
					OFFSET -2.568260 -7.056230 0.000000
					CHANNELS 3 Zrotation Yrotation Xrotation
					JOINT RightToeBase
					{
						OFFSET -0.164730 -0.452590 2.363150
						CHANNELS 3 Zrotation Yrotation Xrotation
						End Site
						{
							OFFSET 0.000000 0.000000 0.000000
						}
					}
				}
			}
		}
	}
	JOINT LowerBack
	{
		OFFSET 0.000000 0.000000 0.000000
		CHANNELS 3 Zrotation Yrotation Xrotation
		JOINT Spine
		{
			OFFSET 0.028270 2.035590 -0.193380
			CHANNELS 3 Zrotation Yrotation Xrotation
			JOINT Spine1
			{
				OFFSET 0.056720 2.048850 -0.042750
				CHANNELS 3 Zrotation Yrotation Xrotation
				JOINT Neck
				{
					OFFSET 0.000000 0.000000 0.000000
					CHANNELS 3 Zrotation Yrotation Xrotation
					JOINT Neck1
					{
						OFFSET -0.054170 1.746240 0.172020
						CHANNELS 3 Zrotation Yrotation Xrotation
						JOINT Head
						{
							OFFSET 0.104070 1.761360 -0.123970
							CHANNELS 3 Zrotation Yrotation Xrotation
							End Site
							{
								OFFSET 0.000000 0.000000 0.000000
							}
						}
					}
				}
				JOINT LeftShoulder
				{
					OFFSET 0.000000 0.000000 0.000000
					CHANNELS 3 Zrotation Yrotation Xrotation
					JOINT LeftArm
					{
						OFFSET 3.362410 1.200890 -0.311210
						CHANNELS 3 Zrotation Yrotation Xrotation
						JOINT LeftForeArm
						{
							OFFSET 4.983000 -0.000000 -0.000000
							CHANNELS 3 Zrotation Yrotation Xrotation
							JOINT LeftHand
							{
								OFFSET 3.483560 -0.000000 -0.000000
								CHANNELS 3 Zrotation Yrotation Xrotation
								JOINT LeftFingerBase
								{
									OFFSET 0.000000 0.000000 0.000000
									CHANNELS 3 Zrotation Yrotation Xrotation
									JOINT LeftHandIndex1
									{
										OFFSET 0.715260 -0.000000 -0.000000
										CHANNELS 3 Zrotation Yrotation Xrotation
										End Site
										{
											OFFSET 0.000000 0.000000 0.000000
										}
									}
								}
								JOINT LThumb
								{
									OFFSET 0.000000 0.000000 0.000000
									CHANNELS 3 Zrotation Yrotation Xrotation
									End Site
									{
										OFFSET 0.000000 0.000000 0.000000
									}
								}
							}
						}
					}
				}
				JOINT RightShoulder
				{
					OFFSET 0.000000 0.000000 0.000000
					CHANNELS 3 Zrotation Yrotation Xrotation
					JOINT RightArm
					{
						OFFSET -3.136600 1.374050 -0.404650
						CHANNELS 3 Zrotation Yrotation Xrotation
						JOINT RightForeArm
						{
							OFFSET -5.241900 -0.000000 -0.000000
							CHANNELS 3 Zrotation Yrotation Xrotation
							JOINT RightHand
							{
								OFFSET -3.444170 -0.000000 -0.000000
								CHANNELS 3 Zrotation Yrotation Xrotation
								JOINT RightFingerBase
								{
									OFFSET 0.000000 0.000000 0.000000
									CHANNELS 3 Zrotation Yrotation Xrotation
									JOINT RightHandIndex1
									{
										OFFSET -0.622530 -0.000000 -0.000000
										CHANNELS 3 Zrotation Yrotation Xrotation
										End Site
										{
											OFFSET 0.000000 0.000000 0.000000
										}
									}
								}
								JOINT RThumb
								{
									OFFSET 0.000000 0.000000 0.000000
									CHANNELS 3 Zrotation Yrotation Xrotation
									End Site
									{
										OFFSET 0.000000 0.000000 0.000000
									}
								}
							}
						}
					}
				}
			}
		}
	}
}
MOTION
Frames: 5
Frame Time: 0.008333
-8.281474 18.011302 -0.973210 167.289146 78.674922 -168.613015 -9.440380 1.713000 3.731373 -15.556972 -6.575307 -31.373989 -2.095460 -0.280995 18.176179 2.227458 11.874419 -5.064445 1.053101 0.000000 -26.354600 9.857299 -3.653376 0.393337 8.967596 -4.395477 -6.469410 1.045919 -0.976844 14.902433 -0.708211 -4.816189 17.689547 177.629000 0.000000 -91.353500 -3.119940 0.732857 -3.795062 -0.187307 1.018527 -3.353450 -0.059638 0.864260 0.742981 -1.549366 1.583292 -6.031400 0.852449 0.035652 0.447758 0.000000 0.000000 0.000000 17.026320 13.823027 3.851921 85.192286 -63.135436 -86.072488 -0.572655 -23.606445 0.022153 -2.818791 -1.125978 0.039169 0.013903 0.453332 0.000000 0.000000 0.000000 0.000000 0.000000 0.000000 0.000000 -13.691955 5.083208 -0.766333 8.048838 63.639012 4.002355 0.335997 26.885481 0.022870 16.484551 -6.543427 -0.971135 -0.296592 0.039906 0.000000 0.000000 0.000000 0.000000 0.000000 0.000000 0.000000 
-8.022205 18.052132 -1.010526 170.389159 78.612838 -165.540118 -9.463379 1.633215 3.884762 -15.777062 -6.542435 -31.669317 -2.257717 -0.545967 14.983942 2.028586 11.016954 -3.922154 1.265300 -0.000000 -27.598600 9.740600 -3.772483 0.275197 9.361365 -4.733346 -6.038849 1.049492 -1.038651 15.282464 -0.740400 -5.003835 18.567859 177.503200 0.000000 -90.790200 -2.687119 0.828833 -3.839481 -0.128795 1.076961 -3.349061 -0.167112 0.927308 0.819889 -1.381585 1.447418 -6.199515 0.775630 0.033189 0.401706 0.000000 0.000000 0.000000 16.991223 14.273841 3.901374 86.026619 -63.155638 -85.879567 -0.687229 -24.574185 0.040533 -5.561692 0.314981 0.004837 0.099879 0.405689 0.000000 0.000000 0.000000 0.000000 0.000000 0.000000 0.000000 -13.186802 5.037021 -0.684841 7.380128 63.284616 3.916777 0.287072 28.119811 0.025564 16.366714 -5.737340 -0.842741 -0.300303 0.016980 0.000000 0.000000 0.000000 0.000000 0.000000 0.000000 0.000000 
-7.765378 18.078438 -1.047628 173.302731 78.495215 -162.694501 -9.495215 1.562370 4.007586 -16.080147 -6.409532 -32.064043 -2.427603 -0.778788 12.243418 1.816217 10.052742 -2.968701 1.386700 0.000000 -29.260299 9.624942 -3.868415 0.134740 9.703741 -5.159535 -5.673306 1.045025 -1.101300 15.954458 -0.794859 -5.373282 18.856949 177.329400 -0.000000 -90.748200 -2.260074 0.904647 -3.836003 -0.067562 1.116371 -3.341127 -0.261981 0.971710 0.869005 -1.272119 1.288803 -6.373344 0.711019 0.031696 0.353881 0.000000 0.000000 0.000000 16.893400 14.558753 3.973037 86.351663 -63.106873 -85.566365 -0.776668 -25.616967 0.057960 -8.223865 1.817048 -0.106713 0.182305 0.356906 0.000000 0.000000 0.000000 0.000000 0.000000 0.000000 0.000000 -12.805193 4.983903 -0.623562 6.772399 63.037434 3.462925 0.238667 29.034000 0.028002 16.148067 -4.803173 -0.692744 -0.302738 -0.008512 0.000000 0.000000 0.000000 0.000000 0.000000 0.000000 0.000000 
-7.510789 18.090926 -1.083974 175.895655 78.326370 -160.217707 -9.527786 1.505857 4.093384 -16.514211 -6.168933 -32.538089 -2.609878 -0.977131 9.967801 1.594174 8.978570 -2.229897 1.417400 0.000000 -31.356900 9.517827 -3.941113 -0.028587 9.958046 -5.678486 -5.362540 1.029714 -1.167798 16.914794 -0.864855 -5.864214 18.608236 177.138600 0.000000 -90.822800 -1.860764 0.955042 -3.778259 -0.007704 1.133465 -3.328544 -0.344691 0.994039 0.890260 -1.210355 1.121103 -6.541703 0.658659 0.030990 0.307210 0.000000 0.000000 0.000000 16.732302 14.674261 4.061159 86.188840 -62.995011 -85.096506 -0.840757 -26.708364 0.073854 -10.713011 3.305653 -0.286789 0.257899 0.309360 0.000000 0.000000 0.000000 0.000000 0.000000 0.000000 0.000000 -12.537130 4.931835 -0.578698 6.219720 62.891121 2.708910 0.194001 29.646937 0.030084 15.876327 -3.843015 -0.540942 -0.304204 -0.034443 0.000000 0.000000 0.000000 0.000000 0.000000 0.000000 0.000000 
-7.258238 18.090146 -1.119144 178.069069 78.119240 -158.215471 -9.552540 1.467638 4.141461 -17.107215 -5.839536 -33.051444 -2.805130 -1.142238 8.134061 1.369071 7.820948 -1.705052 1.370500 -0.000001 -33.810900 9.429052 -3.989885 -0.219728 10.088412 -6.319832 -5.098285 0.999407 -1.238613 18.117789 -0.954087 -6.480480 17.947135 176.932900 0.000000 -91.605601 -1.508338 0.977418 -3.660938 0.046892 1.127331 -3.310502 -0.415915 0.993304 0.883402 -1.185722 0.956820 -6.693760 0.618086 0.030862 0.264604 0.000000 0.000000 0.000000 16.516110 14.622732 4.157400 85.567810 -62.834037 -84.462283 -0.878756 -27.825175 0.087834 -12.954124 4.694831 -0.514297 0.324416 0.265721 0.000000 0.000000 0.000000 0.000000 0.000000 0.000000 0.000000 -12.369462 4.890296 -0.546863 5.703798 62.834597 1.705751 0.153641 29.988327 0.031807 15.575141 -2.943369 -0.401837 -0.304786 -0.059131 0.000000 0.000000 0.000000 0.000000 0.000000 0.000000 0.000000 
